<svg width="267" height="58" viewBox="0 0 267 58" fill="none" xmlns="http://www.w3.org/2000/svg">
<path d="M33.625 40.7178V19.4966H42.0606V39.0595C42.0606 41.1263 42.7095 42.8567 43.9832 44.2025C45.257 45.5484 46.9393 46.2213 48.9821 46.2213C51.0249 46.2213 52.7072 45.5484 54.005 44.2266C55.3027 42.9048 55.9516 41.1744 55.9516 39.0595V19.4966H64.3872V52.8544H55.9516V49.8983C53.5243 52.3978 50.4721 53.6475 46.7951 53.6475C43.118 53.6475 39.8015 52.3978 37.3261 49.9224C34.8507 47.447 33.625 44.3708 33.625 40.7178Z" fill="black"/>
<path d="M106.614 28.4852C105.773 26.5385 104.619 24.8562 103.201 23.4383C101.784 22.0203 100.053 20.8908 98.0584 20.0256C96.0636 19.1604 93.9728 18.7519 91.7617 18.7519C88.1087 18.7519 84.8403 19.9535 82.0284 22.3808V19.4969H74.458V57.469H82.1005V46.9185C84.9604 49.2978 88.2049 50.4754 91.7858 50.4754C93.9968 50.4754 96.0877 50.0668 98.0824 49.2257C100.077 48.3845 101.783 47.255 103.225 45.837C104.667 44.4191 105.797 42.7127 106.638 40.7661C107.479 38.8194 107.912 36.7526 107.912 34.6136C107.912 32.4747 107.479 30.4319 106.638 28.4852H106.614ZM93.9007 43.626C87.1234 45.1401 81.2113 39.228 82.7254 32.4507C83.4944 29.038 86.2342 26.2742 89.6468 25.5292C96.4241 24.0151 102.336 29.9272 100.822 36.7045C100.053 40.1172 97.3134 42.881 93.9007 43.626Z" fill="black"/>
<path d="M2.91087 44.9476C2.91087 44.9476 5.5545 45.7647 6.90034 45.7647C9.30364 45.7647 11.2743 44.8995 12.8125 43.1451C14.3265 41.3907 15.0956 39.1075 15.0956 36.2957V19.4966H23.8196V37.8338C23.8196 42.4722 22.2814 46.2694 19.2293 49.2254C16.1771 52.1815 12.2357 53.6475 7.4531 53.6475C4.80948 53.6475 0.123047 52.4218 0.123047 52.4218L2.9349 44.9476H2.91087Z" fill="black"/>
<path d="M171.358 36.1517C171.358 33.0755 172.103 30.2156 173.593 27.5479C175.084 24.8803 177.174 22.7414 179.818 21.1311C182.462 19.5209 185.418 18.7278 188.638 18.7278C193.637 18.7278 197.747 20.3861 200.943 23.7267C204.139 27.0673 205.75 31.3211 205.75 36.5122V38.9636H180.01C180.587 41.1746 181.717 42.9531 183.423 44.347C185.129 45.7409 187.1 46.4138 189.383 46.4138C191.21 46.4138 192.82 46.0774 194.238 45.3804C195.656 44.6835 196.954 43.5779 198.155 42.0158L204.043 46.3898C202.337 48.697 200.246 50.4754 197.771 51.7491C195.295 53.0229 192.531 53.6478 189.455 53.6478C186.091 53.6478 183.038 52.9027 180.275 51.4127C177.511 49.9226 175.348 47.8318 173.762 45.1401C172.176 42.4484 171.382 39.4443 171.382 36.1037L171.358 36.1517ZM188.47 25.9618C186.499 25.9618 184.769 26.5386 183.279 27.7162C181.789 28.8938 180.755 30.504 180.154 32.5468H197.266C196.665 30.504 195.56 28.8938 193.949 27.7162C192.339 26.5386 190.537 25.9618 188.47 25.9618Z" fill="black"/>
<path d="M258.934 19.4005H266.264V25.0002H258.934V43.6017C258.934 44.4429 259.223 45.0918 259.775 45.5244C260.328 45.957 261.097 46.1973 262.083 46.1973H266.264V53.4793H259.679C256.747 53.4793 254.488 52.7102 252.902 51.1721C251.316 49.634 250.523 47.6153 250.523 45.1158V25.0002L244.01 19.4005H258.934Z" fill="black"/>
<path d="M228.364 53.6478C224.134 53.6478 220.674 52.5903 217.982 50.4994C215.314 48.4086 213.632 45.6688 212.959 42.3523H220.962C221.371 43.9625 222.212 45.1641 223.533 45.9572C224.855 46.7503 226.466 47.1348 228.364 47.1348C229.878 47.1348 231.056 46.8224 231.897 46.1975C232.738 45.5727 233.147 44.7315 233.147 43.6981C233.147 43.0011 232.858 42.3763 232.306 41.8476C231.753 41.3188 230.888 40.8862 229.782 40.6219L222.885 39.0117C216.66 37.5216 213.536 34.2531 213.536 29.1822C213.536 26.0339 214.689 23.4864 217.021 21.5637C219.352 19.6411 222.332 18.6798 225.961 18.6798C230.07 18.6798 233.411 19.7372 235.983 21.8762C238.554 24.0151 240.092 26.7308 240.597 30.0714H232.666C232.257 28.4372 231.392 27.2115 230.119 26.3944C228.845 25.5772 227.427 25.1687 225.889 25.1687C224.591 25.1687 223.582 25.4571 222.861 26.0579C222.14 26.6347 221.779 27.3797 221.779 28.293C221.779 30.0233 223.101 31.201 225.769 31.8258L232.161 33.412C238.266 34.878 241.318 38.0984 241.318 43.0732C241.318 46.1495 240.14 48.6729 237.785 50.6677C235.43 52.6624 232.281 53.6718 228.34 53.6718L228.364 53.6478Z" fill="black"/>
<path d="M126.561 45.7798C125.337 26.2618 124.227 25.1894 104.771 23.7277C124.29 22.5032 125.362 21.394 126.824 1.93795C128.048 21.456 129.157 22.5283 148.613 23.9901C129.095 25.2146 128.023 26.3238 126.561 45.7798Z" fill="black"/>
<path d="M159.005 19.4005H166.335V25.0002H159.005V43.6017C159.005 44.4429 159.293 45.0918 159.846 45.5244C160.398 45.957 161.168 46.1973 162.153 46.1973H166.335V53.4793H159.75C156.818 53.4793 154.558 52.7102 152.972 51.1721C151.386 49.634 150.593 47.6153 150.593 45.1158V25.0002L144.08 19.4005H159.005Z" fill="black"/>
<path fill-rule="evenodd" clip-rule="evenodd" d="M134.969 50.7188H118.262C120.107 48.0918 123.161 46.375 126.615 46.375C130.069 46.375 133.123 48.0918 134.969 50.7188Z" fill="black"/>
</svg>
