<svg width="268" height="58" viewBox="0 0 268 58" fill="none" xmlns="http://www.w3.org/2000/svg">
<path d="M34.4316 40.7178V19.4966H42.8672V39.0595C42.8672 41.1263 43.5161 42.8567 44.7899 44.2025C46.0636 45.5484 47.7459 46.2213 49.7887 46.2213C51.8315 46.2213 53.5138 45.5484 54.8116 44.2266C56.1094 42.9048 56.7583 41.1744 56.7583 39.0595V19.4966H65.1938V52.8544H56.7583V49.8983C54.3309 52.3978 51.2788 53.6475 47.6017 53.6475C43.9247 53.6475 40.6081 52.3978 38.1327 49.9224C35.6573 47.447 34.4316 44.3708 34.4316 40.7178Z" fill="white"/>
<path d="M107.421 28.4852C106.58 26.5385 105.426 24.8562 104.008 23.4383C102.59 22.0203 100.86 20.8908 98.865 20.0256C96.8703 19.1604 94.7794 18.7519 92.5684 18.7519C88.9154 18.7519 85.6469 19.9535 82.835 22.3808V19.4969H75.2646V57.469H82.9071V46.9185C85.7671 49.2978 89.0115 50.4754 92.5924 50.4754C94.8035 50.4754 96.8943 50.0668 98.8891 49.2257C100.884 48.3845 102.59 47.255 104.032 45.837C105.474 44.4191 106.604 42.7127 107.445 40.7661C108.286 38.8194 108.719 36.7526 108.719 34.6136C108.719 32.4747 108.286 30.4319 107.445 28.4852H107.421ZM94.7073 43.626C87.93 45.1401 82.0179 39.228 83.532 32.4507C84.301 29.038 87.0408 26.2742 90.4535 25.5292C97.2308 24.0151 103.143 29.9272 101.629 36.7045C100.86 40.1172 98.12 42.881 94.7073 43.626Z" fill="white"/>
<path d="M3.71751 44.9476C3.71751 44.9476 6.36114 45.7647 7.70699 45.7647C10.1103 45.7647 12.081 44.8995 13.6191 43.1451C15.1332 41.3907 15.9022 39.1075 15.9022 36.2957V19.4966H24.6262V37.8338C24.6262 42.4722 23.0881 46.2694 20.0359 49.2254C16.9837 52.1815 13.0423 53.6475 8.25974 53.6475C5.61612 53.6475 0.929688 52.4218 0.929688 52.4218L3.74155 44.9476H3.71751Z" fill="white"/>
<path d="M131.861 53.6959V49.0912C131.861 49.0912 130.732 46.9106 127.487 46.9106C125.012 46.9106 123.426 49.0912 123.426 49.0912V53.6959H131.861Z" fill="white"/>
<path d="M172.165 36.1517C172.165 33.0755 172.91 30.2156 174.4 27.5479C175.89 24.8803 177.981 22.7414 180.625 21.1311C183.268 19.5209 186.224 18.7278 189.445 18.7278C194.444 18.7278 198.553 20.3861 201.75 23.7267C204.946 27.0673 206.556 31.3211 206.556 36.5122V38.9636H180.817C181.394 41.1746 182.523 42.9531 184.23 44.347C185.936 45.7409 187.907 46.4138 190.19 46.4138C192.016 46.4138 193.626 46.0774 195.044 45.3804C196.462 44.6835 197.76 43.5779 198.962 42.0158L204.85 46.3898C203.144 48.697 201.053 50.4754 198.577 51.7491C196.102 53.0229 193.338 53.6478 190.262 53.6478C186.897 53.6478 183.845 52.9027 181.081 51.4127C178.317 49.9226 176.155 47.8318 174.568 45.1401C172.982 42.4484 172.189 39.4443 172.189 36.1037L172.165 36.1517ZM189.277 25.9618C187.306 25.9618 185.575 26.5386 184.085 27.7162C182.595 28.8938 181.562 30.504 180.961 32.5468H198.073C197.472 30.504 196.366 28.8938 194.756 27.7162C193.146 26.5386 191.343 25.9618 189.277 25.9618Z" fill="white"/>
<path d="M259.741 19.4005H267.071V25.0002H259.741V43.6017C259.741 44.4429 260.029 45.0918 260.582 45.5244C261.135 45.957 261.904 46.1973 262.889 46.1973H267.071V53.4793H260.486C257.554 53.4793 255.295 52.7102 253.709 51.1721C252.122 49.634 251.329 47.6153 251.329 45.1158V25.0002L244.816 19.4005H259.741Z" fill="white"/>
<path d="M229.171 53.6478C224.941 53.6478 221.48 52.5903 218.789 50.4994C216.121 48.4086 214.439 45.6688 213.766 42.3523H221.769C222.177 43.9625 223.018 45.1641 224.34 45.9572C225.662 46.7503 227.272 47.1348 229.171 47.1348C230.685 47.1348 231.862 46.8224 232.704 46.1975C233.545 45.5727 233.953 44.7315 233.953 43.6981C233.953 43.0011 233.665 42.3763 233.112 41.8476C232.559 41.3188 231.694 40.8862 230.589 40.6219L223.691 39.0117C217.467 37.5216 214.342 34.2531 214.342 29.1822C214.342 26.0339 215.496 23.4864 217.827 21.5637C220.158 19.6411 223.138 18.6798 226.767 18.6798C230.877 18.6798 234.218 19.7372 236.789 21.8762C239.361 24.0151 240.899 26.7308 241.404 30.0714H233.473C233.064 28.4372 232.199 27.2115 230.925 26.3944C229.651 25.5772 228.233 25.1687 226.695 25.1687C225.398 25.1687 224.388 25.4571 223.667 26.0579C222.946 26.6347 222.586 27.3797 222.586 28.293C222.586 30.0233 223.908 31.201 226.575 31.8258L232.968 33.412C239.072 34.878 242.125 38.0984 242.125 43.0732C242.125 46.1495 240.947 48.6729 238.592 50.6677C236.236 52.6624 233.088 53.6718 229.147 53.6718L229.171 53.6478Z" fill="white"/>
<path d="M127.368 45.7798C126.143 26.2618 125.034 25.1894 105.578 23.7277C125.096 22.5032 126.168 21.394 127.63 1.93795C128.855 21.456 129.964 22.5283 149.42 23.9901C129.902 25.2146 128.83 26.3238 127.368 45.7798Z" fill="white"/>
<path d="M159.811 19.4005H167.141V25.0002H159.811V43.6017C159.811 44.4429 160.1 45.0918 160.652 45.5244C161.205 45.957 161.974 46.1973 162.96 46.1973H167.141V53.4793H160.556C157.624 53.4793 155.365 52.7102 153.779 51.1721C152.193 49.634 151.4 47.6153 151.4 45.1158V25.0002L144.887 19.4005H159.811Z" fill="white"/>
</svg>
