<svg width="135" height="136" viewBox="0 0 135 136" fill="none" xmlns="http://www.w3.org/2000/svg">
<path d="M120.193 54.6918C117.306 50.4932 113.157 46.7379 107.915 43.4931C97.1481 36.8872 82.8077 33.17 67.5268 33.0536C52.2503 32.9371 37.8584 36.4327 26.9889 42.8729C21.6997 46.0392 17.4921 49.7273 14.5407 53.8834C11.4729 58.2097 9.89421 62.8339 9.85614 67.5834C9.82255 72.3329 11.3318 76.9817 14.3302 81.355C17.2167 85.5537 21.3661 89.309 26.6083 92.5537C37.3747 99.1596 51.7151 102.877 66.9961 102.993C82.277 103.11 96.6689 99.6142 107.538 93.174C112.83 90.0099 117.035 86.3195 119.984 82.1656C123.052 77.8393 124.631 73.2152 124.669 68.4657C124.707 63.7161 123.195 59.0696 120.195 54.6941L120.193 54.6918ZM30.5763 67.6842C30.6031 64.1371 31.2593 60.6506 32.4304 57.3387C37.7017 56.3489 43.6045 55.592 49.9036 55.1822C49.1333 58.7248 48.7011 62.5562 48.616 66.4481C44.7778 66.99 40.138 67.3572 34.4122 67.7133C40.1313 68.1567 44.7644 68.5933 48.5958 69.1957C48.6227 73.0876 49.0526 76.9257 49.7132 80.4795C43.4208 79.9152 37.5315 79.1269 32.2737 78.0565C31.154 74.729 30.5494 71.2894 30.5785 67.6819L30.5763 67.6842ZM30.7285 77.7027C29.5283 77.4654 28.3862 77.1698 27.3002 76.8764C17.1316 74.2811 11.2624 70.8572 11.2893 67.4804C11.3162 64.1035 17.1786 60.8297 27.4435 58.3307C28.5318 58.053 29.7365 57.8335 30.8831 57.5559C29.8283 60.7513 29.2305 64.1259 29.2036 67.561C29.1767 70.9961 29.7231 74.3774 30.7308 77.5885L30.7285 77.7027ZM84.561 66.4973C75.7606 64.8851 71.8889 61.9941 69.8847 54.7097C74.5201 54.7456 79.0412 55.0076 83.3876 55.3278C84.1042 58.8255 84.4759 62.6055 84.561 66.4973ZM69.5511 53.3326C68.942 50.6947 68.5098 47.4858 68.1941 43.6499L68.2635 34.4934C72.554 34.8696 76.5354 38.2196 79.6368 44.1963C81.1036 47.0693 82.2792 50.3991 83.11 53.9528C78.7635 53.6326 74.1864 53.4266 69.5488 53.3348L69.5511 53.3326ZM66.8191 43.6364C66.4452 47.4679 65.966 50.6701 65.3143 53.2967C60.679 53.2609 56.1534 53.4557 51.7465 53.7065C52.631 50.108 53.8604 46.8543 55.3697 44.0059C58.5047 38.1345 62.5936 34.789 66.8908 34.4778L66.8214 43.6342L66.8191 43.6364ZM64.9628 54.6694C62.8467 61.9225 58.8742 64.8112 50.1073 66.2331C50.2507 62.3412 50.6828 58.568 51.4509 55.0815C55.8041 54.7724 60.3275 54.6336 64.9628 54.6694ZM50.0827 69.4375C58.8831 71.0498 62.7548 73.9407 64.759 81.2251C60.1237 81.1893 55.6026 80.9273 51.2561 80.6071C50.5395 77.1093 50.1678 73.3294 50.0827 69.4375ZM65.0927 82.6023C65.7017 85.2402 66.1339 88.4491 66.4497 92.285L66.3802 101.441C62.0898 101.065 58.1083 97.7153 55.0069 91.7386C53.5402 88.8656 52.3645 85.5358 51.5338 81.982C55.8802 82.3022 60.4573 82.5083 65.0949 82.6001L65.0927 82.6023ZM67.8223 92.2962C68.1963 88.4648 68.6755 85.2626 69.3271 82.6359C73.9625 82.6717 78.4881 82.4769 82.895 82.2261C82.0105 85.8246 80.7811 89.0783 79.2718 91.9267C76.1368 97.7981 72.0479 101.144 67.7507 101.455L67.8201 92.2984L67.8223 92.2962ZM69.6787 81.2632C71.7948 74.0102 75.7673 71.1215 84.5342 69.6995C84.3908 73.5914 83.9587 77.3646 83.1906 80.8512C78.8374 81.1602 74.314 81.299 69.6787 81.2632ZM85.9113 69.4241C89.7495 68.8822 94.3893 68.5149 100.115 68.1589C94.396 67.7155 89.7629 67.2788 85.9315 66.6765C85.9046 62.7846 85.4747 58.9465 84.8141 55.3927C91.1065 55.957 96.9958 56.7452 102.254 57.8156C103.373 61.1432 103.978 64.5827 103.949 68.1902C103.922 71.7955 103.266 75.2238 102.095 78.5358C96.8234 79.5255 90.9206 80.2824 84.6215 80.6922C85.3918 77.1496 85.824 73.3182 85.9091 69.4263L85.9113 69.4241ZM105.324 68.1992C105.351 64.7641 104.804 61.3828 103.797 58.1717C104.997 58.409 106.139 58.7046 107.225 58.998C117.393 61.5933 123.263 65.0172 123.236 68.394C123.209 71.7709 117.346 75.0447 107.082 77.5438C105.993 77.8214 104.789 78.0409 103.642 78.3185C104.697 75.1231 105.295 71.7485 105.321 68.3134L105.324 68.1992ZM123.036 64.7865C122.242 63.9199 121.274 63.0556 119.908 62.2449C117.004 60.505 112.892 58.9868 107.639 57.6298C106.269 57.276 104.782 56.9221 103.297 56.6243C101.445 51.6867 98.5051 47.2014 94.4139 43.3924C90.7191 39.9887 86.3905 37.3217 81.6544 35.5683C103.893 39.2295 120.687 50.7484 123.041 64.791L123.036 64.7865ZM93.4286 44.4135C97.1234 47.8754 99.8957 51.9599 101.694 56.3825C96.4942 55.3703 90.7168 54.5821 84.5409 54.0178C83.6541 50.1752 82.4225 46.561 80.8438 43.5133C78.8128 39.5475 76.3182 36.6678 73.5818 34.9301C81.0722 36.1326 88.0297 39.3908 93.4846 44.4695L93.4264 44.4112L93.4286 44.4135ZM54.1739 43.3118C52.5482 46.3885 51.2606 49.9289 50.3178 53.7558C44.1329 54.1678 38.3466 54.9247 33.1291 55.8562C34.9944 51.465 37.7711 47.4208 41.5757 44.0149C47.1089 39.019 54.0574 35.8684 61.6218 34.7801C58.8607 36.4752 56.3214 39.3191 54.2299 43.2513L54.1717 43.3095L54.1739 43.3118ZM53.4887 35.4071C48.7257 37.0888 44.3546 39.6863 40.6105 43.0363C36.4611 46.7826 33.3933 51.2791 31.5235 56.1317C30.0344 56.4071 28.543 56.7385 27.1658 57.0722C21.8901 58.3486 17.7586 59.8064 14.8251 61.4993C13.4435 62.2897 12.4089 63.1407 11.6588 63.9938C14.1712 50.0475 31.1406 38.7302 53.4327 35.4093L53.4909 35.4093L53.4887 35.4071ZM11.4931 71.0879C12.288 71.9545 13.2554 72.8189 14.6213 73.6295C17.5257 75.3694 21.637 76.8876 26.8904 78.2446C28.2608 78.5985 29.7477 78.9523 31.2324 79.2501C33.0843 84.1877 36.0245 88.673 40.1156 92.482C43.8105 95.8858 48.139 98.5527 52.8751 100.306C30.6972 96.7053 13.9025 85.1282 11.4931 71.0879ZM41.0987 91.4632C37.4039 88.0012 34.6316 83.9168 32.8335 79.4942C38.0331 80.5063 43.8105 81.2946 49.9864 81.8589C50.8732 85.7015 52.1048 89.3157 53.6835 92.3634C55.7145 96.3291 58.2091 99.2089 60.9455 100.947C53.4551 99.744 46.4976 96.4859 41.0427 91.4072L41.1009 91.4654L41.0987 91.4632ZM80.3534 92.5649C81.9791 89.4881 83.2667 85.9478 84.2095 82.1209C90.3944 81.7088 96.1807 80.9519 101.398 80.0204C99.5329 84.4116 96.7562 88.4558 92.9516 91.8618C87.4184 96.8576 80.4698 100.008 72.9055 101.097C75.6666 99.4014 78.2059 96.5575 80.2974 92.6254L80.3556 92.5671L80.3534 92.5649ZM81.0364 100.467C85.7994 98.7856 90.1704 96.1881 93.9145 92.8381C98.0639 89.0918 101.132 84.5953 103.002 79.7427C104.491 79.4673 105.982 79.1359 107.359 78.8022C112.635 77.5258 116.766 76.0681 119.7 74.3752C121.082 73.5847 122.116 72.7338 122.866 71.8806C120.298 85.8829 103.27 97.142 81.0364 100.463L81.0364 100.467Z" fill="#9098A5"/>
</svg>
