<svg width="1132" height="577" viewBox="0 0 1132 577" fill="none" xmlns="http://www.w3.org/2000/svg">
<g clip-path="url(#clip0_31_37)">
<g filter="url(#filter0_d_31_37)">
<path d="M278.114 247.794C278.114 213.39 306.004 185.5 340.408 185.5H792.206C826.61 185.5 854.5 213.39 854.5 247.794C854.5 282.198 826.61 310.088 792.206 310.088H340.408C306.004 310.088 278.114 282.198 278.114 247.794Z" fill="black"/>
</g>
<g filter="url(#filter1_d_31_37)">
<path d="M277.5 248.206C277.5 213.802 305.39 185.912 339.794 185.912H791.592C825.996 185.912 853.886 213.802 853.886 248.206C853.886 282.61 825.996 310.5 791.592 310.5H339.794C305.39 310.5 277.5 282.61 277.5 248.206Z" fill="black"/>
<path d="M339.794 185.412C305.114 185.412 277 213.526 277 248.206C277 282.886 305.114 311 339.794 311H791.592C826.272 311 854.386 282.886 854.386 248.206C854.386 213.526 826.272 185.412 791.592 185.412H339.794Z" stroke="url(#paint0_linear_31_37)"/>
</g>
<circle cx="351.067" cy="247.548" r="35.0751" fill="black"/>
<mask id="path-5-outside-1_31_37" maskUnits="userSpaceOnUse" x="404.907" y="231.241" width="69" height="33" fill="black">
<rect fill="white" x="404.907" y="231.241" width="69" height="33"/>
<path d="M418.325 233.15V262.241H413.055V238.278H412.884L406.081 242.625V237.795L413.311 233.15H418.325ZM436.365 262.639C434.973 262.63 433.614 262.388 432.288 261.915C430.962 261.432 429.769 260.65 428.708 259.571C427.648 258.482 426.805 257.038 426.18 255.238C425.555 253.43 425.247 251.19 425.257 248.52C425.257 246.029 425.522 243.809 426.052 241.858C426.582 239.907 427.345 238.259 428.339 236.915C429.333 235.56 430.531 234.528 431.933 233.818C433.344 233.108 434.92 232.753 436.663 232.753C438.491 232.753 440.11 233.113 441.521 233.832C442.941 234.552 444.087 235.537 444.958 236.787C445.83 238.027 446.369 239.429 446.578 240.991H441.393C441.128 239.874 440.583 238.984 439.76 238.321C438.945 237.649 437.913 237.312 436.663 237.312C434.646 237.312 433.093 238.188 432.004 239.94C430.924 241.692 430.38 244.097 430.37 247.156H430.569C431.033 246.323 431.634 245.608 432.373 245.011C433.112 244.415 433.945 243.955 434.873 243.633C435.811 243.302 436.8 243.136 437.842 243.136C439.546 243.136 441.076 243.543 442.43 244.358C443.794 245.172 444.873 246.294 445.669 247.724C446.464 249.145 446.857 250.774 446.848 252.611C446.857 254.524 446.421 256.242 445.541 257.767C444.66 259.282 443.434 260.475 441.862 261.346C440.29 262.218 438.457 262.649 436.365 262.639ZM436.336 258.378C437.368 258.378 438.292 258.127 439.106 257.625C439.92 257.123 440.564 256.446 441.038 255.594C441.511 254.741 441.743 253.785 441.734 252.724C441.743 251.683 441.516 250.74 441.052 249.898C440.598 249.055 439.968 248.387 439.163 247.895C438.358 247.402 437.439 247.156 436.407 247.156C435.64 247.156 434.925 247.303 434.262 247.596C433.599 247.89 433.022 248.297 432.529 248.818C432.037 249.329 431.649 249.926 431.365 250.608C431.09 251.28 430.948 252 430.938 252.767C430.948 253.78 431.185 254.713 431.649 255.565C432.113 256.417 432.752 257.099 433.566 257.611C434.381 258.122 435.304 258.378 436.336 258.378ZM472.188 248.135L470.27 248.676C470.082 248.135 469.815 247.645 469.47 247.206C469.125 246.766 468.674 246.417 468.117 246.159C467.568 245.9 466.886 245.77 466.07 245.77C464.846 245.77 463.842 246.061 463.058 246.641C462.274 247.221 461.881 247.97 461.881 248.888C461.881 249.665 462.148 250.296 462.681 250.782C463.223 251.261 464.054 251.641 465.176 251.923L467.905 252.594C469.419 252.963 470.552 253.547 471.305 254.347C472.066 255.147 472.446 256.151 472.446 257.359C472.446 258.378 472.164 259.284 471.599 260.077C471.035 260.869 470.246 261.492 469.235 261.947C468.231 262.394 467.066 262.618 465.74 262.618C463.976 262.618 462.521 262.222 461.376 261.43C460.23 260.63 459.497 259.477 459.176 257.971L461.187 257.477C461.446 258.551 461.952 259.363 462.705 259.912C463.466 260.461 464.466 260.735 465.705 260.735C467.093 260.735 468.203 260.426 469.035 259.806C469.866 259.179 470.282 258.394 470.282 257.453C470.282 256.724 470.039 256.112 469.552 255.618C469.066 255.116 468.329 254.747 467.34 254.512L464.387 253.806C462.819 253.429 461.658 252.833 460.905 252.018C460.152 251.202 459.776 250.19 459.776 248.982C459.776 247.986 460.046 247.112 460.587 246.359C461.129 245.598 461.874 245.002 462.823 244.57C463.772 244.139 464.854 243.923 466.07 243.923C467.725 243.923 469.046 244.3 470.035 245.053C471.031 245.798 471.748 246.825 472.188 248.135Z"/>
</mask>
<path d="M418.325 233.15V262.241H413.055V238.278H412.884L406.081 242.625V237.795L413.311 233.15H418.325ZM436.365 262.639C434.973 262.63 433.614 262.388 432.288 261.915C430.962 261.432 429.769 260.65 428.708 259.571C427.648 258.482 426.805 257.038 426.18 255.238C425.555 253.43 425.247 251.19 425.257 248.52C425.257 246.029 425.522 243.809 426.052 241.858C426.582 239.907 427.345 238.259 428.339 236.915C429.333 235.56 430.531 234.528 431.933 233.818C433.344 233.108 434.92 232.753 436.663 232.753C438.491 232.753 440.11 233.113 441.521 233.832C442.941 234.552 444.087 235.537 444.958 236.787C445.83 238.027 446.369 239.429 446.578 240.991H441.393C441.128 239.874 440.583 238.984 439.76 238.321C438.945 237.649 437.913 237.312 436.663 237.312C434.646 237.312 433.093 238.188 432.004 239.94C430.924 241.692 430.38 244.097 430.37 247.156H430.569C431.033 246.323 431.634 245.608 432.373 245.011C433.112 244.415 433.945 243.955 434.873 243.633C435.811 243.302 436.8 243.136 437.842 243.136C439.546 243.136 441.076 243.543 442.43 244.358C443.794 245.172 444.873 246.294 445.669 247.724C446.464 249.145 446.857 250.774 446.848 252.611C446.857 254.524 446.421 256.242 445.541 257.767C444.66 259.282 443.434 260.475 441.862 261.346C440.29 262.218 438.457 262.649 436.365 262.639ZM436.336 258.378C437.368 258.378 438.292 258.127 439.106 257.625C439.92 257.123 440.564 256.446 441.038 255.594C441.511 254.741 441.743 253.785 441.734 252.724C441.743 251.683 441.516 250.74 441.052 249.898C440.598 249.055 439.968 248.387 439.163 247.895C438.358 247.402 437.439 247.156 436.407 247.156C435.64 247.156 434.925 247.303 434.262 247.596C433.599 247.89 433.022 248.297 432.529 248.818C432.037 249.329 431.649 249.926 431.365 250.608C431.09 251.28 430.948 252 430.938 252.767C430.948 253.78 431.185 254.713 431.649 255.565C432.113 256.417 432.752 257.099 433.566 257.611C434.381 258.122 435.304 258.378 436.336 258.378ZM472.188 248.135L470.27 248.676C470.082 248.135 469.815 247.645 469.47 247.206C469.125 246.766 468.674 246.417 468.117 246.159C467.568 245.9 466.886 245.77 466.07 245.77C464.846 245.77 463.842 246.061 463.058 246.641C462.274 247.221 461.881 247.97 461.881 248.888C461.881 249.665 462.148 250.296 462.681 250.782C463.223 251.261 464.054 251.641 465.176 251.923L467.905 252.594C469.419 252.963 470.552 253.547 471.305 254.347C472.066 255.147 472.446 256.151 472.446 257.359C472.446 258.378 472.164 259.284 471.599 260.077C471.035 260.869 470.246 261.492 469.235 261.947C468.231 262.394 467.066 262.618 465.74 262.618C463.976 262.618 462.521 262.222 461.376 261.43C460.23 260.63 459.497 259.477 459.176 257.971L461.187 257.477C461.446 258.551 461.952 259.363 462.705 259.912C463.466 260.461 464.466 260.735 465.705 260.735C467.093 260.735 468.203 260.426 469.035 259.806C469.866 259.179 470.282 258.394 470.282 257.453C470.282 256.724 470.039 256.112 469.552 255.618C469.066 255.116 468.329 254.747 467.34 254.512L464.387 253.806C462.819 253.429 461.658 252.833 460.905 252.018C460.152 251.202 459.776 250.19 459.776 248.982C459.776 247.986 460.046 247.112 460.587 246.359C461.129 245.598 461.874 245.002 462.823 244.57C463.772 244.139 464.854 243.923 466.07 243.923C467.725 243.923 469.046 244.3 470.035 245.053C471.031 245.798 471.748 246.825 472.188 248.135Z" fill="#C0C9D2"/>
<path d="M418.325 233.15H418.938V232.537H418.325V233.15ZM418.325 262.241V262.855H418.938V262.241H418.325ZM413.055 262.241H412.441V262.855H413.055V262.241ZM413.055 238.278H413.668V237.665H413.055V238.278ZM412.884 238.278V237.665H412.705L412.554 237.761L412.884 238.278ZM406.081 242.625H405.467V243.745L406.411 243.142L406.081 242.625ZM406.081 237.795L405.749 237.279L405.467 237.46V237.795H406.081ZM413.311 233.15V232.537H413.131L412.979 232.634L413.311 233.15ZM417.711 233.15V262.241H418.938V233.15H417.711ZM418.325 261.628H413.055V262.855H418.325V261.628ZM413.668 262.241V238.278H412.441V262.241H413.668ZM413.055 237.665H412.884V238.892H413.055V237.665ZM412.554 237.761L405.75 242.108L406.411 243.142L413.215 238.795L412.554 237.761ZM406.694 242.625V237.795H405.467V242.625H406.694ZM406.412 238.311L413.642 233.667L412.979 232.634L405.749 237.279L406.412 238.311ZM413.311 233.764H418.325V232.537H413.311V233.764ZM436.365 262.639L436.36 263.253L436.362 263.253L436.365 262.639ZM432.288 261.915L432.078 262.491L432.082 262.492L432.288 261.915ZM428.708 259.571L428.269 259.999L428.271 260.001L428.708 259.571ZM426.18 255.238L425.6 255.439L425.6 255.44L426.18 255.238ZM425.257 248.52L425.87 248.522V248.52H425.257ZM426.052 241.858L426.644 242.019L426.052 241.858ZM428.339 236.915L428.832 237.279L428.834 237.278L428.339 236.915ZM431.933 233.818L431.657 233.27L431.655 233.271L431.933 233.818ZM441.521 233.832L441.242 234.379L441.244 234.38L441.521 233.832ZM444.958 236.787L444.455 237.138L444.456 237.139L444.958 236.787ZM446.578 240.991V241.605H447.278L447.186 240.91L446.578 240.991ZM441.393 240.991L440.796 241.133L440.908 241.605H441.393V240.991ZM439.759 238.321L439.369 238.794L439.375 238.799L439.759 238.321ZM432.004 239.94L431.483 239.616L431.481 239.618L432.004 239.94ZM430.37 247.156L429.757 247.154L429.755 247.77H430.37V247.156ZM430.569 247.156V247.77H430.93L431.105 247.455L430.569 247.156ZM434.873 243.633L435.074 244.213L435.078 244.212L434.873 243.633ZM442.43 244.358L442.114 244.884L442.115 244.885L442.43 244.358ZM445.669 247.724L445.132 248.023L445.133 248.024L445.669 247.724ZM446.848 252.611L446.234 252.607L446.234 252.614L446.848 252.611ZM445.541 257.767L446.071 258.075L446.072 258.074L445.541 257.767ZM441.862 261.346L442.159 261.883L441.862 261.346ZM439.106 257.625L438.784 257.103L439.106 257.625ZM441.734 252.724L441.12 252.719L441.12 252.73L441.734 252.724ZM441.052 249.898L440.512 250.189L440.515 250.193L441.052 249.898ZM434.262 247.596L434.511 248.157L434.262 247.596ZM432.529 248.818L432.971 249.244L432.975 249.24L432.529 248.818ZM431.365 250.608L430.798 250.372L430.797 250.376L431.365 250.608ZM430.938 252.767L430.325 252.759L430.325 252.773L430.938 252.767ZM431.649 255.565L432.188 255.272L431.649 255.565ZM433.566 257.611L433.24 258.13L433.566 257.611ZM436.369 262.026C435.046 262.017 433.756 261.787 432.494 261.337L432.082 262.492C433.471 262.989 434.899 263.243 436.36 263.253L436.369 262.026ZM432.498 261.338C431.264 260.889 430.147 260.16 429.146 259.141L428.271 260.001C429.391 261.141 430.66 261.975 432.078 262.491L432.498 261.338ZM429.148 259.143C428.164 258.132 427.362 256.772 426.76 255.037L425.6 255.44C426.248 257.303 427.132 258.831 428.269 259.999L429.148 259.143ZM426.76 255.038C426.164 253.315 425.861 251.149 425.87 248.522L424.643 248.518C424.634 251.232 424.946 253.545 425.6 255.439L426.76 255.038ZM425.87 248.52C425.87 246.072 426.131 243.907 426.644 242.019L425.46 241.697C424.913 243.711 424.643 245.987 424.643 248.52H425.87ZM426.644 242.019C427.159 240.127 427.892 238.552 428.832 237.279L427.846 236.55C426.798 237.967 426.006 239.688 425.46 241.697L426.644 242.019ZM428.834 237.278C429.775 235.996 430.9 235.029 432.21 234.365L431.655 233.271C430.162 234.027 428.892 235.125 427.845 236.552L428.834 237.278ZM432.209 234.366C433.526 233.703 435.006 233.366 436.663 233.366V232.139C434.835 232.139 433.162 232.512 431.657 233.27L432.209 234.366ZM436.663 233.366C438.409 233.366 439.93 233.709 441.242 234.379L441.8 233.286C440.29 232.516 438.573 232.139 436.663 232.139V233.366ZM441.244 234.38C442.578 235.056 443.644 235.975 444.455 237.138L445.462 236.436C444.53 235.099 443.305 234.048 441.798 233.285L441.244 234.38ZM444.456 237.139C445.269 238.296 445.774 239.604 445.97 241.072L447.186 240.91C446.965 239.254 446.391 237.759 445.46 236.434L444.456 237.139ZM446.578 240.378H441.393V241.605H446.578V240.378ZM441.99 240.85C441.696 239.612 441.083 238.599 440.144 237.843L439.375 238.799C440.083 239.369 440.56 240.136 440.796 241.133L441.99 240.85ZM440.15 237.848C439.206 237.069 438.028 236.699 436.663 236.699V237.926C437.798 237.926 438.684 238.228 439.369 238.794L440.15 237.848ZM436.663 236.699C434.428 236.699 432.681 237.689 431.483 239.616L432.525 240.264C433.505 238.687 434.864 237.926 436.663 237.926V236.699ZM431.481 239.618C430.321 241.502 429.766 244.034 429.757 247.154L430.984 247.158C430.993 244.161 431.528 241.882 432.526 240.262L431.481 239.618ZM430.37 247.77H430.569V246.543H430.37V247.77ZM431.105 247.455C431.531 246.69 432.081 246.035 432.759 245.489L431.988 244.534C431.188 245.18 430.535 245.956 430.033 246.858L431.105 247.455ZM432.759 245.489C433.44 244.938 434.211 244.513 435.074 244.213L434.672 243.054C433.679 243.398 432.783 243.891 431.988 244.534L432.759 245.489ZM435.078 244.212C435.946 243.905 436.867 243.75 437.842 243.75V242.523C436.734 242.523 435.675 242.699 434.669 243.055L435.078 244.212ZM437.842 243.75C439.444 243.75 440.863 244.131 442.114 244.884L442.746 243.832C441.289 242.956 439.649 242.523 437.842 242.523V243.75ZM442.115 244.885C443.383 245.642 444.388 246.684 445.132 248.023L446.205 247.426C445.358 245.905 444.204 244.703 442.745 243.831L442.115 244.885ZM445.133 248.024C445.871 249.341 446.243 250.863 446.234 252.607L447.461 252.614C447.471 250.685 447.058 248.949 446.204 247.425L445.133 248.024ZM446.234 252.614C446.243 254.427 445.831 256.038 445.009 257.46L446.072 258.074C447.012 256.447 447.471 254.62 447.461 252.608L446.234 252.614ZM445.01 257.459C444.187 258.875 443.042 259.991 441.564 260.81L442.159 261.883C443.825 260.96 445.133 259.689 446.071 258.075L445.01 257.459ZM441.564 260.81C440.098 261.622 438.373 262.035 436.367 262.026L436.362 263.253C438.542 263.262 440.481 262.813 442.159 261.883L441.564 260.81ZM436.336 258.991C437.473 258.991 438.509 258.713 439.428 258.147L438.784 257.103C438.074 257.54 437.264 257.764 436.336 257.764V258.991ZM439.428 258.147C440.334 257.589 441.051 256.834 441.574 255.892L440.502 255.296C440.078 256.058 439.507 256.657 438.784 257.103L439.428 258.147ZM441.574 255.892C442.104 254.938 442.358 253.876 442.347 252.719L441.12 252.73C441.129 253.694 440.919 254.544 440.502 255.296L441.574 255.892ZM442.347 252.73C442.358 251.592 442.109 250.544 441.59 249.602L440.515 250.193C440.924 250.936 441.129 251.773 441.12 252.719L442.347 252.73ZM441.592 249.606C441.087 248.67 440.382 247.921 439.483 247.371L438.843 248.418C439.554 248.853 440.108 249.44 440.512 250.189L441.592 249.606ZM439.483 247.371C438.573 246.815 437.541 246.543 436.407 246.543V247.77C437.337 247.77 438.143 247.99 438.843 248.418L439.483 247.371ZM436.407 246.543C435.56 246.543 434.76 246.705 434.014 247.035L434.511 248.157C435.091 247.901 435.721 247.77 436.407 247.77V246.543ZM434.014 247.035C433.278 247.362 432.633 247.816 432.084 248.397L432.975 249.24C433.411 248.779 433.921 248.418 434.511 248.157L434.014 247.035ZM432.087 248.392C431.54 248.961 431.11 249.623 430.798 250.372L431.931 250.844C432.187 250.229 432.534 249.698 432.971 249.244L432.087 248.392ZM430.797 250.376C430.491 251.123 430.335 251.92 430.325 252.759L431.552 252.774C431.561 252.08 431.689 251.437 431.933 250.84L430.797 250.376ZM430.325 252.773C430.335 253.882 430.596 254.914 431.11 255.859L432.188 255.272C431.774 254.512 431.561 253.678 431.552 252.761L430.325 252.773ZM431.11 255.859C431.624 256.802 432.336 257.562 433.24 258.13L433.893 257.091C433.168 256.636 432.602 256.033 432.188 255.272L431.11 255.859ZM433.24 258.13C434.159 258.708 435.197 258.991 436.336 258.991V257.764C435.411 257.764 434.602 257.537 433.893 257.091L433.24 258.13ZM472.188 248.135L472.354 248.726L472.974 248.551L472.769 247.94L472.188 248.135ZM470.27 248.676L469.69 248.878L469.88 249.424L470.437 249.267L470.27 248.676ZM469.47 247.206L469.952 246.827V246.827L469.47 247.206ZM468.117 246.159L467.855 246.714L467.858 246.715L468.117 246.159ZM463.058 246.641L462.693 246.148L463.058 246.641ZM462.681 250.782L462.268 251.236L462.275 251.242L462.681 250.782ZM465.176 251.923L465.026 252.518L465.029 252.519L465.176 251.923ZM467.905 252.594L467.759 253.19L467.76 253.19L467.905 252.594ZM471.305 254.347L470.858 254.767L470.861 254.77L471.305 254.347ZM471.599 260.077L471.1 259.72L471.599 260.077ZM469.235 261.947L469.484 262.508L469.486 262.507L469.235 261.947ZM461.376 261.43L461.024 261.932L461.027 261.934L461.376 261.43ZM459.176 257.971L459.029 257.375L458.451 257.517L458.576 258.099L459.176 257.971ZM461.187 257.477L461.784 257.333L461.639 256.734L461.041 256.881L461.187 257.477ZM462.705 259.912L462.344 260.408L462.346 260.409L462.705 259.912ZM469.035 259.806L469.401 260.298L469.404 260.296L469.035 259.806ZM469.552 255.618L469.112 256.045L469.115 256.048L469.552 255.618ZM467.34 254.512L467.198 255.108L467.198 255.109L467.34 254.512ZM464.387 253.806L464.244 254.402L464.245 254.403L464.387 253.806ZM460.905 252.018L460.454 252.434L460.905 252.018ZM460.587 246.359L461.086 246.717L461.087 246.714L460.587 246.359ZM462.823 244.57L463.077 245.129L462.823 244.57ZM470.035 245.053L469.663 245.541L469.667 245.544L470.035 245.053ZM472.021 247.545L470.103 248.086L470.437 249.267L472.354 248.726L472.021 247.545ZM470.849 248.475C470.639 247.871 470.34 247.321 469.952 246.827L468.987 247.585C469.29 247.969 469.524 248.399 469.69 248.878L470.849 248.475ZM469.952 246.827C469.542 246.304 469.011 245.898 468.376 245.602L467.858 246.715C468.337 246.937 468.708 247.229 468.987 247.585L469.952 246.827ZM468.379 245.604C467.725 245.295 466.946 245.157 466.07 245.157V246.384C466.825 246.384 467.411 246.504 467.855 246.714L468.379 245.604ZM466.07 245.157C464.749 245.157 463.607 245.471 462.693 246.148L463.423 247.134C464.077 246.65 464.944 246.384 466.07 246.384V245.157ZM462.693 246.148C461.764 246.835 461.268 247.762 461.268 248.888H462.495C462.495 248.179 462.783 247.607 463.423 247.134L462.693 246.148ZM461.268 248.888C461.268 249.822 461.597 250.623 462.268 251.236L463.095 250.329C462.699 249.968 462.495 249.507 462.495 248.888H461.268ZM462.275 251.242C462.921 251.813 463.86 252.225 465.026 252.518L465.325 251.328C464.248 251.057 463.524 250.708 463.088 250.323L462.275 251.242ZM465.029 252.519L467.759 253.19L468.052 251.998L465.322 251.328L465.029 252.519ZM467.76 253.19C469.204 253.542 470.214 254.083 470.858 254.767L471.752 253.927C470.89 253.011 469.633 252.383 468.05 251.998L467.76 253.19ZM470.861 254.77C471.502 255.445 471.833 256.292 471.833 257.359H473.06C473.06 256.01 472.63 254.849 471.75 253.924L470.861 254.77ZM471.833 257.359C471.833 258.257 471.587 259.037 471.1 259.72L472.099 260.433C472.741 259.531 473.06 258.5 473.06 257.359H471.833ZM471.1 259.72C470.607 260.412 469.91 260.971 468.983 261.388L469.486 262.507C470.583 262.014 471.463 261.325 472.099 260.433L471.1 259.72ZM468.985 261.387C468.074 261.792 466.997 262.004 465.74 262.004V263.231C467.135 263.231 468.387 262.996 469.484 262.508L468.985 261.387ZM465.74 262.004C464.067 262.004 462.743 261.629 461.725 260.925L461.027 261.934C462.299 262.814 463.884 263.231 465.74 263.231V262.004ZM461.727 260.927C460.723 260.225 460.068 259.213 459.776 257.843L458.576 258.099C458.926 259.74 459.738 261.034 461.024 261.932L461.727 260.927ZM459.322 258.566L461.334 258.072L461.041 256.881L459.029 257.375L459.322 258.566ZM460.591 257.62C460.877 258.809 461.452 259.757 462.344 260.408L463.066 259.416C462.452 258.968 462.015 258.293 461.784 257.333L460.591 257.62ZM462.346 260.409C463.24 261.055 464.378 261.349 465.705 261.349V260.122C464.554 260.122 463.691 259.867 463.064 259.414L462.346 260.409ZM465.705 261.349C467.181 261.349 468.433 261.019 469.401 260.298L468.668 259.314C467.973 259.832 467.006 260.122 465.705 260.122V261.349ZM469.404 260.296C470.37 259.567 470.895 258.609 470.895 257.453H469.668C469.668 258.179 469.362 258.791 468.665 259.316L469.404 260.296ZM470.895 257.453C470.895 256.572 470.595 255.803 469.99 255.187L469.115 256.048C469.482 256.421 469.668 256.875 469.668 257.453H470.895ZM469.993 255.191C469.396 254.575 468.536 254.166 467.483 253.915L467.198 255.109C468.122 255.328 468.736 255.656 469.112 256.045L469.993 255.191ZM467.483 253.915L464.53 253.209L464.245 254.403L467.198 255.108L467.483 253.915ZM464.531 253.209C463.029 252.849 461.997 252.296 461.356 251.601L460.454 252.434C461.319 253.371 462.608 254.01 464.244 254.402L464.531 253.209ZM461.356 251.601C460.717 250.909 460.389 250.051 460.389 248.982H459.162C459.162 250.329 459.587 251.494 460.454 252.434L461.356 251.601ZM460.389 248.982C460.389 248.104 460.625 247.357 461.086 246.717L460.089 246C459.467 246.866 459.162 247.868 459.162 248.982H460.389ZM461.087 246.714C461.559 246.051 462.214 245.521 463.077 245.129L462.569 244.012C461.533 244.483 460.698 245.144 460.087 246.003L461.087 246.714ZM463.077 245.129C463.934 244.739 464.927 244.537 466.07 244.537V243.31C464.781 243.31 463.61 243.539 462.569 244.012L463.077 245.129ZM466.07 244.537C467.635 244.537 468.812 244.892 469.663 245.541L470.406 244.565C469.281 243.707 467.815 243.31 466.07 243.31V244.537ZM469.667 245.544C470.552 246.206 471.202 247.125 471.606 248.33L472.769 247.94C472.295 246.526 471.509 245.389 470.402 244.561L469.667 245.544Z" fill="url(#paint1_linear_31_37)" mask="url(#path-5-outside-1_31_37)"/>
<circle cx="644.326" cy="247.548" r="35.0751" fill="#091108"/>
<path d="M644.41 282.826C639.531 282.826 634.95 281.897 630.666 280.04C626.382 278.183 622.606 275.62 619.337 272.351C616.068 269.082 613.493 265.306 611.611 261.022C609.754 256.713 608.825 252.12 608.825 247.241C608.825 242.388 609.754 237.819 611.611 233.535C613.468 229.226 616.031 225.438 619.3 222.169C622.593 218.875 626.382 216.3 630.666 214.443C634.95 212.586 639.519 211.657 644.372 211.657C649.251 211.657 653.832 212.586 658.116 214.443C662.4 216.3 666.176 218.875 669.445 222.169C672.738 225.438 675.314 229.226 677.171 233.535C679.053 237.819 679.994 242.388 679.994 247.241C679.994 252.12 679.065 256.713 677.208 261.022C675.351 265.306 672.776 269.082 669.482 272.351C666.213 275.62 662.437 278.183 658.153 280.04C653.869 281.897 649.288 282.826 644.41 282.826ZM644.41 277.44C648.595 277.44 652.507 276.66 656.147 275.1C659.812 273.54 663.019 271.385 665.768 268.637C668.541 265.863 670.695 262.656 672.231 259.016C673.791 255.351 674.571 251.426 674.571 247.241C674.571 243.081 673.791 239.181 672.231 235.541C670.695 231.876 668.541 228.669 665.768 225.92C663.019 223.147 659.812 220.98 656.147 219.42C652.507 217.86 648.582 217.08 644.372 217.08C640.187 217.08 636.275 217.86 632.635 219.42C628.995 220.98 625.8 223.147 623.052 225.92C620.303 228.669 618.148 231.876 616.588 235.541C615.028 239.181 614.248 243.081 614.248 247.241C614.248 251.426 615.028 255.351 616.588 259.016C618.148 262.656 620.303 265.863 623.052 268.637C625.8 271.385 628.995 273.54 632.635 275.1C636.3 276.66 640.225 277.44 644.41 277.44ZM640.547 263.919C640.002 263.919 639.519 263.808 639.098 263.585C638.677 263.337 638.256 262.941 637.835 262.396L628.957 251.624C628.462 250.956 628.215 250.287 628.215 249.619C628.215 248.9 628.45 248.306 628.92 247.836C629.391 247.34 629.973 247.093 630.666 247.093C631.137 247.093 631.558 247.179 631.929 247.353C632.3 247.526 632.672 247.86 633.043 248.356L640.435 257.716L655.516 233.684C656.135 232.718 656.878 232.235 657.744 232.235C658.388 232.235 658.983 232.458 659.527 232.904C660.072 233.325 660.345 233.882 660.345 234.575C660.345 234.922 660.258 235.268 660.085 235.615C659.936 235.962 659.763 236.296 659.565 236.618L643.11 262.396C642.466 263.412 641.611 263.919 640.547 263.919Z" fill="#399D32"/>
<path d="M351.068 283.035C346.189 283.035 341.608 282.107 337.324 280.25C333.04 278.392 329.264 275.829 325.995 272.561C322.727 269.292 320.151 265.516 318.269 261.232C316.412 256.923 315.483 252.329 315.483 247.451C315.483 242.598 316.412 238.029 318.269 233.745C320.126 229.436 322.689 225.647 325.958 222.379C329.252 219.085 333.04 216.51 337.324 214.653C341.608 212.795 346.177 211.867 351.031 211.867C355.909 211.867 360.49 212.795 364.774 214.653C369.058 216.51 372.834 219.085 376.103 222.379C379.397 225.647 381.972 229.436 383.829 233.745C385.711 238.029 386.652 242.598 386.652 247.451C386.652 252.329 385.724 256.923 383.866 261.232C382.009 265.516 379.434 269.292 376.14 272.561C372.872 275.829 369.095 278.392 364.811 280.25C360.527 282.107 355.946 283.035 351.068 283.035ZM351.068 277.65C355.253 277.65 359.165 276.869 362.805 275.309C366.47 273.749 369.677 271.595 372.426 268.846C375.199 266.073 377.354 262.866 378.889 259.226C380.449 255.561 381.229 251.636 381.229 247.451C381.229 243.291 380.449 239.391 378.889 235.751C377.354 232.086 375.199 228.879 372.426 226.13C369.677 223.357 366.47 221.19 362.805 219.63C359.165 218.07 355.24 217.29 351.031 217.29C346.846 217.29 342.933 218.07 339.293 219.63C335.653 221.19 332.458 223.357 329.71 226.13C326.961 228.879 324.807 232.086 323.247 235.751C321.687 239.391 320.906 243.291 320.906 247.451C320.906 251.636 321.687 255.561 323.247 259.226C324.807 262.866 326.961 266.073 329.71 268.846C332.458 271.595 335.653 273.749 339.293 275.309C342.958 276.869 346.883 277.65 351.068 277.65Z" fill="#C0C9D2"/>
<circle cx="775.909" cy="248.057" r="35.5842" fill="#190E0E"/>
<path d="M775.909 283.642C771.03 283.642 766.449 282.713 762.165 280.856C757.881 278.999 754.105 276.436 750.836 273.167C747.567 269.898 744.992 266.122 743.11 261.838C741.253 257.529 740.324 252.936 740.324 248.057C740.324 243.204 741.253 238.635 743.11 234.351C744.967 230.042 747.53 226.254 750.799 222.985C754.092 219.691 757.881 217.116 762.165 215.259C766.449 213.402 771.018 212.473 775.871 212.473C780.75 212.473 785.331 213.402 789.615 215.259C793.899 217.116 797.675 219.691 800.944 222.985C804.237 226.254 806.813 230.042 808.67 234.351C810.552 238.635 811.493 243.204 811.493 248.057C811.493 252.936 810.564 257.529 808.707 261.838C806.85 266.122 804.275 269.898 800.981 273.167C797.712 276.436 793.936 278.999 789.652 280.856C785.368 282.713 780.787 283.642 775.909 283.642ZM775.909 278.256C780.094 278.256 784.006 277.476 787.646 275.916C791.311 274.356 794.518 272.201 797.267 269.453C800.04 266.679 802.194 263.472 803.73 259.832C805.29 256.167 806.07 252.242 806.07 248.057C806.07 243.897 805.29 239.997 803.73 236.357C802.194 232.692 800.04 229.485 797.267 226.736C794.518 223.963 791.311 221.796 787.646 220.236C784.006 218.676 780.081 217.896 775.871 217.896C771.687 217.896 767.774 218.676 764.134 220.236C760.494 221.796 757.299 223.963 754.551 226.736C751.802 229.485 749.647 232.692 748.087 236.357C746.527 239.997 745.747 243.897 745.747 248.057C745.747 252.242 746.527 256.167 748.087 259.832C749.647 263.472 751.802 266.679 754.551 269.453C757.299 272.201 760.494 274.356 764.134 275.916C767.799 277.476 771.724 278.256 775.909 278.256ZM763.8 262.767C763.081 262.767 762.475 262.519 761.979 262.024C761.484 261.504 761.237 260.897 761.237 260.204C761.237 259.486 761.497 258.891 762.017 258.421L772.268 248.095L762.017 237.806C761.497 237.335 761.237 236.741 761.237 236.023C761.237 235.304 761.484 234.71 761.979 234.24C762.475 233.744 763.081 233.497 763.8 233.497C764.518 233.497 765.112 233.757 765.582 234.277L775.871 244.529L786.235 234.24C786.78 233.72 787.386 233.46 788.055 233.46C788.748 233.46 789.343 233.707 789.838 234.203C790.358 234.673 790.618 235.28 790.618 236.023C790.618 236.691 790.358 237.286 789.838 237.806L779.549 248.095L789.801 258.384C790.321 258.904 790.581 259.51 790.581 260.204C790.581 260.897 790.321 261.504 789.801 262.024C789.305 262.519 788.711 262.767 788.018 262.767C787.3 262.767 786.68 262.507 786.16 261.987L775.871 251.735L765.657 261.987C765.186 262.507 764.567 262.767 763.8 262.767Z" fill="#C03A33"/>
<rect x="341.351" y="234.703" width="5.52171" height="25.0778" rx="0.920286" fill="#C0C9D2" stroke="url(#paint2_linear_31_37)" stroke-width="0.613524"/>
<rect x="355.079" y="234.703" width="5.52171" height="25.0778" rx="0.920286" fill="#C0C9D2" stroke="url(#paint3_linear_31_37)" stroke-width="0.613524"/>
</g>
<defs>
<filter id="filter0_d_31_37" x="11.2143" y="-28.4" width="1110.19" height="658.388" filterUnits="userSpaceOnUse" color-interpolation-filters="sRGB">
<feFlood flood-opacity="0" result="BackgroundImageFix"/>
<feColorMatrix in="SourceAlpha" type="matrix" values="0 0 0 0 0 0 0 0 0 0 0 0 0 0 0 0 0 0 127 0" result="hardAlpha"/>
<feMorphology radius="75" operator="dilate" in="SourceAlpha" result="effect1_dropShadow_31_37"/>
<feOffset dy="53"/>
<feGaussianBlur stdDeviation="95.95"/>
<feComposite in2="hardAlpha" operator="out"/>
<feColorMatrix type="matrix" values="0 0 0 0 1 0 0 0 0 1 0 0 0 0 1 0 0 0 0.18 0"/>
<feBlend mode="luminosity" in2="BackgroundImageFix" result="effect1_dropShadow_31_37"/>
<feBlend mode="normal" in="SourceGraphic" in2="effect1_dropShadow_31_37" result="shape"/>
</filter>
<filter id="filter1_d_31_37" x="216.8" y="134.212" width="697.786" height="245.988" filterUnits="userSpaceOnUse" color-interpolation-filters="sRGB">
<feFlood flood-opacity="0" result="BackgroundImageFix"/>
<feColorMatrix in="SourceAlpha" type="matrix" values="0 0 0 0 0 0 0 0 0 0 0 0 0 0 0 0 0 0 127 0" result="hardAlpha"/>
<feMorphology radius="10" operator="dilate" in="SourceAlpha" result="effect1_dropShadow_31_37"/>
<feOffset dy="9"/>
<feGaussianBlur stdDeviation="24.85"/>
<feComposite in2="hardAlpha" operator="out"/>
<feColorMatrix type="matrix" values="0 0 0 0 0 0 0 0 0 0 0 0 0 0 0 0 0 0 0.9 0"/>
<feBlend mode="normal" in2="BackgroundImageFix" result="effect1_dropShadow_31_37"/>
<feBlend mode="normal" in="SourceGraphic" in2="effect1_dropShadow_31_37" result="shape"/>
</filter>
<linearGradient id="paint0_linear_31_37" x1="661.984" y1="290.995" x2="661.984" y2="124.848" gradientUnits="userSpaceOnUse">
<stop/>
<stop offset="1" stop-color="#D8D9DC"/>
</linearGradient>
<linearGradient id="paint1_linear_31_37" x1="436.835" y1="271.241" x2="463.212" y2="251.237" gradientUnits="userSpaceOnUse">
<stop offset="0.486231"/>
<stop offset="1" stop-color="#666666"/>
</linearGradient>
<linearGradient id="paint2_linear_31_37" x1="343.889" y1="260.087" x2="347.426" y2="259.654" gradientUnits="userSpaceOnUse">
<stop offset="0.486231"/>
<stop offset="1" stop-color="#666666"/>
</linearGradient>
<linearGradient id="paint3_linear_31_37" x1="357.618" y1="260.087" x2="361.155" y2="259.654" gradientUnits="userSpaceOnUse">
<stop offset="0.486231"/>
<stop offset="1" stop-color="#666666"/>
</linearGradient>
<clipPath id="clip0_31_37">
<rect width="1132" height="577" fill="white"/>
</clipPath>
</defs>
</svg>
