<svg width="41" height="51" viewBox="0 0 41 51" fill="none" xmlns="http://www.w3.org/2000/svg">
<path d="M7.7666 16.2285C6.34473 16.2285 5.04785 15.8848 3.87598 15.1973C2.7041 14.4941 1.77441 13.5645 1.08691 12.4082C0.399414 11.2363 0.0556641 9.93945 0.0556641 8.51758C0.0556641 7.11133 0.399414 5.83008 1.08691 4.67383C1.77441 3.50195 2.7041 2.57227 3.87598 1.88477C5.04785 1.18164 6.34473 0.830078 7.7666 0.830078C9.17285 0.830078 10.4619 1.18164 11.6338 1.88477C12.8057 2.57227 13.7354 3.50195 14.4229 4.67383C15.126 5.83008 15.4775 7.11133 15.4775 8.51758C15.4775 9.93945 15.126 11.2363 14.4229 12.4082C13.7354 13.5645 12.8057 14.4941 11.6338 15.1973C10.4619 15.8848 9.17285 16.2285 7.7666 16.2285ZM7.7666 11.916C8.71973 11.916 9.5166 11.5879 10.1572 10.9316C10.8135 10.2754 11.1416 9.4707 11.1416 8.51758C11.1416 7.56445 10.8135 6.76758 10.1572 6.12695C9.5166 5.48633 8.71973 5.16602 7.7666 5.16602C6.8291 5.16602 6.03223 5.48633 5.37598 6.12695C4.71973 6.76758 4.3916 7.56445 4.3916 8.51758C4.3916 9.4707 4.71973 10.2754 5.37598 10.9316C6.03223 11.5879 6.8291 11.916 7.7666 11.916ZM5.46973 16.6504V14.7285H10.04V16.6504C10.04 19.2441 11.8057 21.0098 15.3369 21.9473L26.54 24.9473C29.3369 25.6816 31.4541 26.8691 32.8916 28.5098C34.3291 30.1348 35.0479 32.166 35.0479 34.6035V36.5254H30.4775V34.6035C30.4775 32.0254 28.7119 30.2598 25.1807 29.3066L13.9775 26.3066C11.1807 25.5879 9.06348 24.4082 7.62598 22.7676C6.18848 21.127 5.46973 19.0879 5.46973 16.6504ZM32.7744 35.002C34.1963 35.002 35.4854 35.3535 36.6416 36.0566C37.8135 36.7598 38.7432 37.6973 39.4307 38.8691C40.1182 40.0254 40.4619 41.3145 40.4619 42.7363C40.4619 44.1582 40.1182 45.4473 39.4307 46.6035C38.7432 47.7754 37.8135 48.7051 36.6416 49.3926C35.4854 50.0801 34.1963 50.4238 32.7744 50.4238C31.3525 50.4238 30.0557 50.0801 28.8838 49.3926C27.7275 48.7051 26.7979 47.7754 26.0947 46.6035C25.3916 45.4473 25.04 44.1582 25.04 42.7363C25.04 41.3145 25.3916 40.0254 26.0947 38.8691C26.7979 37.6973 27.7275 36.7598 28.8838 36.0566C30.0557 35.3535 31.3525 35.002 32.7744 35.002Z" fill="#AE4C1A"/>
</svg>
