<svg width="136" height="136" viewBox="0 0 136 136" fill="none" xmlns="http://www.w3.org/2000/svg">
<path d="M120.93 54.6918C118.043 50.4932 113.894 46.7379 108.652 43.4931C97.8854 36.8872 83.545 33.17 68.2641 33.0536C52.9876 32.9371 38.5957 36.4327 27.7262 42.8729C22.437 46.0392 18.2294 49.7273 15.278 53.8834C12.2102 58.2097 10.6315 62.8339 10.5934 67.5834C10.5599 72.3329 12.0691 76.9817 15.0675 81.355C17.954 85.5537 22.1034 89.309 27.3456 92.5537C38.1121 99.1596 52.4525 102.877 67.7334 102.993C83.0143 103.11 97.4062 99.6142 108.276 93.174C113.567 90.0099 117.772 86.3195 120.722 82.1656C123.789 77.8393 125.368 73.2152 125.406 68.4657C125.444 63.7162 123.933 59.0696 120.932 54.6941L120.93 54.6918ZM31.3136 67.6842C31.3404 64.1371 31.9966 60.6506 33.1677 57.3387C38.439 56.3489 44.3418 55.592 50.6409 55.1822C49.8706 58.7248 49.4384 62.5562 49.3533 66.4481C45.5151 66.99 40.8753 67.3572 35.1495 67.7133C40.8686 68.1567 45.5017 68.5933 49.3331 69.1957C49.36 73.0876 49.7899 76.9257 50.4505 80.4795C44.1581 79.9152 38.2688 79.1269 33.011 78.0565C31.8913 74.729 31.2867 71.2894 31.3158 67.6819L31.3136 67.6842ZM31.4658 77.7027C30.2656 77.4654 29.1236 77.1698 28.0375 76.8764C17.8689 74.2811 11.9997 70.8572 12.0266 67.4804C12.0535 64.1035 17.9159 60.8297 28.1808 58.3307C29.2691 58.053 30.4738 57.8335 31.6204 57.5559C30.5657 60.7513 29.9678 64.1259 29.9409 67.561C29.914 70.9961 30.4604 74.3774 31.4681 77.5885L31.4658 77.7027ZM85.2983 66.4973C76.4979 64.885 72.6262 61.9941 70.622 54.7097C75.2574 54.7456 79.7785 55.0076 84.1249 55.3278C84.8415 58.8255 85.2132 62.6055 85.2983 66.4973ZM70.2884 53.3326C69.6793 50.6947 69.2471 47.4858 68.9314 43.6499L69.0008 34.4934C73.2913 34.8696 77.2727 38.2196 80.3741 44.1963C81.8409 47.0693 83.0165 50.3991 83.8473 53.9528C79.5008 53.6326 74.9237 53.4266 70.2861 53.3348L70.2884 53.3326ZM67.5565 43.6364C67.1825 47.4679 66.7033 50.6701 66.0517 53.2967C61.4163 53.2609 56.8907 53.4557 52.4838 53.7065C53.3683 50.108 54.5977 46.8543 56.107 44.0059C59.242 38.1345 63.3309 34.789 67.6281 34.4778L67.5587 43.6342L67.5565 43.6364ZM65.7001 54.6694C63.584 61.9225 59.6115 64.8112 50.8446 66.2331C50.988 62.3412 51.4201 58.568 52.1882 55.0815C56.5414 54.7724 61.0648 54.6336 65.7001 54.6694ZM50.82 69.4375C59.6204 71.0498 63.4921 73.9407 65.4963 81.2251C60.861 81.1893 56.3399 80.9273 51.9934 80.6071C51.2768 77.1093 50.9051 73.3294 50.82 69.4375ZM65.83 82.6023C66.439 85.2402 66.8712 88.4491 67.187 92.285L67.1176 101.441C62.8271 101.065 58.8456 97.7153 55.7442 91.7386C54.2775 88.8656 53.1018 85.5358 52.2711 81.982C56.6175 82.3022 61.1946 82.5083 65.8322 82.6001L65.83 82.6023ZM68.5597 92.2962C68.9336 88.4648 69.4128 85.2626 70.0645 82.6359C74.6998 82.6717 79.2254 82.4769 83.6323 82.2261C82.7478 85.8246 81.5184 89.0783 80.0091 91.9267C76.8741 97.7981 72.7852 101.144 68.488 101.455L68.5574 92.2984L68.5597 92.2962ZM70.416 81.2632C72.5321 74.0102 76.5046 71.1215 85.2715 69.6995C85.1281 73.5914 84.696 77.3646 83.9279 80.8512C79.5747 81.1602 75.0513 81.299 70.416 81.2632ZM86.6486 69.4241C90.4868 68.8822 95.1266 68.5149 100.852 68.1589C95.1333 67.7155 90.5002 67.2788 86.6688 66.6765C86.6419 62.7846 86.212 58.9465 85.5514 55.3927C91.8438 55.957 97.7331 56.7452 102.991 57.8156C104.111 61.1432 104.715 64.5827 104.686 68.1902C104.659 71.7955 104.003 75.2238 102.832 78.5358C97.5607 79.5255 91.6579 80.2824 85.3588 80.6922C86.1291 77.1496 86.5613 73.3182 86.6464 69.4263L86.6486 69.4241ZM106.061 68.1992C106.088 64.7641 105.541 61.3828 104.534 58.1717C105.734 58.409 106.876 58.7046 107.962 58.998C118.131 61.5933 124 65.0172 123.973 68.394C123.946 71.7709 118.084 75.0447 107.819 77.5438C106.731 77.8214 105.526 78.0409 104.379 78.3185C105.434 75.1231 106.032 71.7485 106.059 68.3134L106.061 68.1992ZM123.774 64.7865C122.979 63.9199 122.011 63.0556 120.645 62.2449C117.741 60.505 113.63 58.9868 108.376 57.6298C107.006 57.276 105.519 56.9221 104.034 56.6243C102.183 51.6867 99.2424 47.2014 95.1512 43.3924C91.4564 39.9887 87.1278 37.3217 82.3917 35.5683C104.63 39.2295 121.425 50.7484 123.778 64.791L123.774 64.7865ZM94.1659 44.4135C97.8607 47.8754 100.633 51.9599 102.431 56.3825C97.2315 55.3703 91.4541 54.5821 85.2782 54.0178C84.3914 50.1752 83.1598 46.561 81.5811 43.5133C79.5501 39.5475 77.0555 36.6678 74.3191 34.9301C81.8095 36.1326 88.767 39.3908 94.2219 44.4695L94.1637 44.4112L94.1659 44.4135ZM54.9112 43.3118C53.2855 46.3885 51.9979 49.9289 51.0551 53.7558C44.8702 54.1678 39.0839 54.9247 33.8664 55.8562C35.7317 51.465 38.5084 47.4208 42.313 44.0149C47.8462 39.019 54.7948 35.8684 62.3591 34.7801C59.598 36.4752 57.0587 39.3191 54.9672 43.2513L54.909 43.3095L54.9112 43.3118ZM54.226 35.4071C49.463 37.0888 45.0919 39.6863 41.3478 43.0363C37.1984 46.7826 34.1306 51.2791 32.2608 56.1317C30.7717 56.4071 29.2803 56.7385 27.9031 57.0722C22.6274 58.3486 18.4959 59.8064 15.5624 61.4993C14.1808 62.2897 13.1462 63.1407 12.3961 63.9938C14.9086 50.0475 31.8779 38.7302 54.17 35.4093L54.2282 35.4093L54.226 35.4071ZM12.2304 71.0879C13.0253 71.9545 13.9927 72.8189 15.3586 73.6295C18.263 75.3694 22.3743 76.8876 27.6277 78.2446C28.9982 78.5985 30.485 78.9523 31.9697 79.2501C33.8216 84.1877 36.7618 88.673 40.8529 92.482C44.5478 95.8858 48.8763 98.5528 53.6124 100.306C31.4345 96.7053 14.6398 85.1282 12.2304 71.0879ZM41.836 91.4632C38.1412 88.0012 35.3689 83.9168 33.5708 79.4942C38.7704 80.5063 44.5478 81.2946 50.7237 81.8589C51.6105 85.7015 52.8421 89.3157 54.4208 92.3634C56.4518 96.3291 58.9464 99.2089 61.6828 100.947C54.1924 99.744 47.2349 96.4859 41.78 91.4072L41.8382 91.4654L41.836 91.4632ZM81.0907 92.5649C82.7164 89.4881 84.004 85.9478 84.9468 82.1209C91.1317 81.7088 96.918 80.9519 102.136 80.0204C100.27 84.4116 97.4935 88.4558 93.6889 91.8618C88.1557 96.8576 81.2072 100.008 73.6428 101.097C76.4039 99.4014 78.9432 96.5575 81.0347 92.6254L81.0929 92.5671L81.0907 92.5649ZM81.7737 100.467C86.5367 98.7856 90.9078 96.1881 94.6518 92.8381C98.8012 89.0918 101.869 84.5953 103.739 79.7427C105.228 79.4673 106.719 79.1359 108.097 78.8022C113.372 77.5258 117.504 76.0681 120.437 74.3752C121.819 73.5847 122.853 72.7338 123.604 71.8806C121.035 85.8829 104.008 97.142 81.7737 100.463V100.467Z" fill="#3E434B"/>
</svg>
