<svg width="54" height="43" viewBox="0 0 54 43" fill="none" xmlns="http://www.w3.org/2000/svg">
<path d="M26.8447 25.7285C25.4541 25.7285 24.1572 25.3457 22.9541 24.5801C21.7666 23.7988 20.8057 22.7598 20.0713 21.4629C19.3525 20.166 18.9932 18.7129 18.9932 17.1035C18.9932 15.4941 19.3525 14.0566 20.0713 12.791C20.8057 11.5254 21.7666 10.5254 22.9541 9.79102C24.1572 9.04102 25.4541 8.66602 26.8447 8.66602C28.251 8.66602 29.5479 9.0332 30.7354 9.76758C31.9229 10.4863 32.8838 11.4785 33.6182 12.7441C34.3525 13.9941 34.7197 15.4316 34.7197 17.0566C34.7197 18.6816 34.3525 20.1504 33.6182 21.4629C32.8838 22.7598 31.9229 23.7988 30.7354 24.5801C29.5479 25.3457 28.251 25.7285 26.8447 25.7285ZM15.3604 42.6973C13.6572 42.6973 12.4854 42.4551 11.8447 41.9707C11.2197 41.502 10.9072 40.8301 10.9072 39.9551C10.9072 38.7363 11.2744 37.4473 12.0088 36.0879C12.7432 34.7285 13.8057 33.4629 15.1963 32.291C16.5869 31.1035 18.2588 30.1426 20.2119 29.4082C22.1807 28.6582 24.3916 28.2832 26.8447 28.2832C29.3135 28.2832 31.5244 28.6582 33.4775 29.4082C35.4463 30.1426 37.126 31.1035 38.5166 32.291C39.9072 33.4629 40.9697 34.7285 41.7041 36.0879C42.4385 37.4473 42.8057 38.7363 42.8057 39.9551C42.8057 40.8301 42.4854 41.502 41.8447 41.9707C41.2197 42.4551 40.0479 42.6973 38.3291 42.6973H15.3604ZM2.02441 3.62695C1.64941 3.62695 1.32129 3.48633 1.04004 3.20508C0.758789 2.92383 0.618164 2.58789 0.618164 2.19727C0.618164 1.83789 0.758789 1.51758 1.04004 1.23633C1.32129 0.955078 1.64941 0.814453 2.02441 0.814453C2.39941 0.814453 2.72754 0.955078 3.00879 1.23633C3.29004 1.51758 3.43066 1.83789 3.43066 2.19727C3.43066 2.58789 3.29004 2.92383 3.00879 3.20508C2.72754 3.48633 2.39941 3.62695 2.02441 3.62695ZM9.10254 3.62695C8.72754 3.62695 8.39941 3.48633 8.11816 3.20508C7.85254 2.92383 7.71973 2.58789 7.71973 2.19727C7.71973 1.83789 7.85254 1.51758 8.11816 1.23633C8.39941 0.955078 8.72754 0.814453 9.10254 0.814453C9.47754 0.814453 9.79785 0.955078 10.0635 1.23633C10.3447 1.51758 10.4854 1.83789 10.4854 2.19727C10.4854 2.58789 10.3447 2.92383 10.0635 3.20508C9.79785 3.48633 9.47754 3.62695 9.10254 3.62695ZM16.1807 3.62695C15.79 3.62695 15.4541 3.48633 15.1729 3.20508C14.9072 2.92383 14.7744 2.58789 14.7744 2.19727C14.7744 1.83789 14.9072 1.51758 15.1729 1.23633C15.4541 0.955078 15.79 0.814453 16.1807 0.814453C16.5557 0.814453 16.876 0.955078 17.1416 1.23633C17.4229 1.51758 17.5635 1.83789 17.5635 2.19727C17.5635 2.58789 17.4229 2.92383 17.1416 3.20508C16.876 3.48633 16.5557 3.62695 16.1807 3.62695ZM23.2354 4.18945C22.7041 4.18945 22.2432 3.99414 21.8525 3.60352C21.4775 3.21289 21.29 2.74414 21.29 2.19727C21.29 1.68164 21.4775 1.22852 21.8525 0.837891C22.2432 0.447266 22.7041 0.251953 23.2354 0.251953C23.7822 0.251953 24.2432 0.447266 24.6182 0.837891C25.0088 1.22852 25.2041 1.68164 25.2041 2.19727C25.2041 2.74414 25.0088 3.21289 24.6182 3.60352C24.2432 3.99414 23.7822 4.18945 23.2354 4.18945ZM30.3135 4.18945C29.7822 4.18945 29.3213 3.99414 28.9307 3.60352C28.54 3.21289 28.3447 2.74414 28.3447 2.19727C28.3447 1.68164 28.54 1.22852 28.9307 0.837891C29.3213 0.447266 29.7822 0.251953 30.3135 0.251953C30.8447 0.251953 31.3057 0.447266 31.6963 0.837891C32.0869 1.22852 32.2822 1.68164 32.2822 2.19727C32.2822 2.74414 32.0869 3.21289 31.6963 3.60352C31.3057 3.99414 30.8447 4.18945 30.3135 4.18945ZM37.415 3.62695C37.04 3.62695 36.7119 3.48633 36.4307 3.20508C36.165 2.92383 36.0322 2.58789 36.0322 2.19727C36.0322 1.83789 36.165 1.51758 36.4307 1.23633C36.7119 0.955078 37.04 0.814453 37.415 0.814453C37.8057 0.814453 38.1338 0.955078 38.3994 1.23633C38.6807 1.51758 38.8213 1.83789 38.8213 2.19727C38.8213 2.58789 38.6807 2.92383 38.3994 3.20508C38.1338 3.48633 37.8057 3.62695 37.415 3.62695ZM44.4932 3.62695C44.1025 3.62695 43.7744 3.48633 43.5088 3.20508C43.2432 2.92383 43.1104 2.58789 43.1104 2.19727C43.1104 1.83789 43.2432 1.51758 43.5088 1.23633C43.7744 0.955078 44.1025 0.814453 44.4932 0.814453C44.8682 0.814453 45.1885 0.955078 45.4541 1.23633C45.7354 1.51758 45.876 1.83789 45.876 2.19727C45.876 2.58789 45.7354 2.92383 45.4541 3.20508C45.1885 3.48633 44.8682 3.62695 44.4932 3.62695ZM51.5479 3.62695C51.1885 3.62695 50.8682 3.48633 50.5869 3.20508C50.3057 2.92383 50.165 2.58789 50.165 2.19727C50.165 1.83789 50.3057 1.51758 50.5869 1.23633C50.8682 0.955078 51.1885 0.814453 51.5479 0.814453C51.9385 0.814453 52.2666 0.955078 52.5322 1.23633C52.8135 1.51758 52.9541 1.83789 52.9541 2.19727C52.9541 2.58789 52.8135 2.92383 52.5322 3.20508C52.2666 3.48633 51.9385 3.62695 51.5479 3.62695ZM2.02441 11.3613C1.64941 11.3613 1.32129 11.2207 1.04004 10.9395C0.758789 10.6582 0.618164 10.3301 0.618164 9.95508C0.618164 9.58008 0.758789 9.25195 1.04004 8.9707C1.32129 8.68945 1.64941 8.54883 2.02441 8.54883C2.39941 8.54883 2.72754 8.68945 3.00879 8.9707C3.29004 9.25195 3.43066 9.58008 3.43066 9.95508C3.43066 10.3301 3.29004 10.6582 3.00879 10.9395C2.72754 11.2207 2.39941 11.3613 2.02441 11.3613ZM9.10254 11.9238C8.55566 11.9238 8.08691 11.7285 7.69629 11.3379C7.32129 10.9473 7.13379 10.4863 7.13379 9.95508C7.13379 9.4082 7.32129 8.94727 7.69629 8.57227C8.08691 8.18164 8.55566 7.98633 9.10254 7.98633C9.63379 7.98633 10.0947 8.18164 10.4854 8.57227C10.876 8.94727 11.0713 9.4082 11.0713 9.95508C11.0713 10.4863 10.876 10.9473 10.4854 11.3379C10.0947 11.7285 9.63379 11.9238 9.10254 11.9238ZM16.1807 11.9238C15.6338 11.9238 15.165 11.7285 14.7744 11.3379C14.3994 10.9473 14.2119 10.4863 14.2119 9.95508C14.2119 9.4082 14.3994 8.94727 14.7744 8.57227C15.165 8.18164 15.6338 7.98633 16.1807 7.98633C16.6807 7.98633 17.1182 8.16602 17.4932 8.52539C17.8682 8.86914 18.0713 9.2832 18.1025 9.76758C17.6025 10.4238 17.1963 11.0879 16.8838 11.7598C16.6338 11.8691 16.3994 11.9238 16.1807 11.9238ZM37.415 11.9238C37.1963 11.9238 37.0088 11.8926 36.8525 11.8301C36.4932 11.0645 36.04 10.3301 35.4932 9.62695C35.5713 9.1582 35.79 8.76758 36.1494 8.45508C36.5088 8.14258 36.9307 7.98633 37.415 7.98633C37.9619 7.98633 38.4229 8.18164 38.7979 8.57227C39.1885 8.94727 39.3838 9.4082 39.3838 9.95508C39.3838 10.4863 39.1885 10.9473 38.7979 11.3379C38.4229 11.7285 37.9619 11.9238 37.415 11.9238ZM44.4932 11.9238C43.9463 11.9238 43.4775 11.7285 43.0869 11.3379C42.7119 10.9473 42.5244 10.4863 42.5244 9.95508C42.5244 9.4082 42.7119 8.94727 43.0869 8.57227C43.4775 8.18164 43.9463 7.98633 44.4932 7.98633C45.04 7.98633 45.501 8.18164 45.876 8.57227C46.2666 8.94727 46.4619 9.4082 46.4619 9.95508C46.4619 10.4863 46.2666 10.9473 45.876 11.3379C45.501 11.7285 45.04 11.9238 44.4932 11.9238ZM51.5479 11.3613C51.1885 11.3613 50.8682 11.2207 50.5869 10.9395C50.3057 10.6582 50.165 10.3301 50.165 9.95508C50.165 9.58008 50.3057 9.25195 50.5869 8.9707C50.8682 8.68945 51.1885 8.54883 51.5479 8.54883C51.9385 8.54883 52.2666 8.68945 52.5322 8.9707C52.8135 9.25195 52.9541 9.58008 52.9541 9.95508C52.9541 10.3301 52.8135 10.6582 52.5322 10.9395C52.2666 11.2207 51.9385 11.3613 51.5479 11.3613ZM2.02441 19.6582C1.49316 19.6582 1.03223 19.4629 0.641602 19.0723C0.250977 18.6816 0.0556641 18.2129 0.0556641 17.666C0.0556641 17.1504 0.250977 16.6973 0.641602 16.3066C1.03223 15.9004 1.49316 15.6973 2.02441 15.6973C2.55566 15.6973 3.0166 15.9004 3.40723 16.3066C3.79785 16.6973 3.99316 17.1504 3.99316 17.666C3.99316 18.2129 3.79785 18.6816 3.40723 19.0723C3.0166 19.4629 2.55566 19.6582 2.02441 19.6582ZM9.10254 20.2207C8.39941 20.2207 7.79785 19.9707 7.29785 19.4707C6.79785 18.9707 6.54785 18.3691 6.54785 17.666C6.54785 16.9785 6.79785 16.3848 7.29785 15.8848C7.79785 15.3848 8.39941 15.1348 9.10254 15.1348C9.79004 15.1348 10.3838 15.3848 10.8838 15.8848C11.3838 16.3848 11.6338 16.9785 11.6338 17.666C11.6338 18.3691 11.3838 18.9707 10.8838 19.4707C10.3838 19.9707 9.79004 20.2207 9.10254 20.2207ZM13.626 17.666C13.626 17.0254 13.8369 16.4707 14.2588 16.002C14.6807 15.5332 15.1963 15.252 15.8057 15.1582C15.6963 15.8457 15.6416 16.4941 15.6416 17.1035C15.6416 18.2129 15.7822 19.252 16.0635 20.2207C15.3916 20.1895 14.8135 19.9316 14.3291 19.4473C13.8604 18.9473 13.626 18.3535 13.626 17.666ZM39.9463 17.666C39.9463 18.3379 39.7197 18.916 39.2666 19.4004C38.8135 19.8848 38.2666 20.1582 37.626 20.2207C37.876 19.252 38.001 18.1973 38.001 17.0566C38.001 16.3848 37.9541 15.7598 37.8604 15.1816C38.4697 15.291 38.9697 15.5801 39.3604 16.0488C39.751 16.5176 39.9463 17.0566 39.9463 17.666ZM44.4932 20.2207C43.79 20.2207 43.1885 19.9707 42.6885 19.4707C42.2041 18.9707 41.9619 18.3691 41.9619 17.666C41.9619 16.9785 42.2041 16.3848 42.6885 15.8848C43.1885 15.3848 43.79 15.1348 44.4932 15.1348C45.1963 15.1348 45.79 15.3848 46.2744 15.8848C46.7744 16.3848 47.0244 16.9785 47.0244 17.666C47.0244 18.3691 46.7744 18.9707 46.2744 19.4707C45.79 19.9707 45.1963 20.2207 44.4932 20.2207ZM51.5479 19.6582C51.0322 19.6582 50.5791 19.4629 50.1885 19.0723C49.7979 18.6816 49.6025 18.2129 49.6025 17.666C49.6025 17.1504 49.7979 16.6973 50.1885 16.3066C50.5791 15.9004 51.0322 15.6973 51.5479 15.6973C52.0947 15.6973 52.5635 15.9004 52.9541 16.3066C53.3447 16.6973 53.54 17.1504 53.54 17.666C53.54 18.2129 53.3447 18.6816 52.9541 19.0723C52.5635 19.4629 52.0947 19.6582 51.5479 19.6582ZM2.02441 27.3926C1.49316 27.3926 1.03223 27.1973 0.641602 26.8066C0.250977 26.416 0.0556641 25.9473 0.0556641 25.4004C0.0556641 24.8691 0.250977 24.416 0.641602 24.041C1.03223 23.6504 1.49316 23.4551 2.02441 23.4551C2.55566 23.4551 3.0166 23.6504 3.40723 24.041C3.79785 24.416 3.99316 24.8691 3.99316 25.4004C3.99316 25.9473 3.79785 26.416 3.40723 26.8066C3.0166 27.1973 2.55566 27.3926 2.02441 27.3926ZM9.10254 27.9551C8.39941 27.9551 7.79785 27.7051 7.29785 27.2051C6.79785 26.7051 6.54785 26.1035 6.54785 25.4004C6.54785 24.7129 6.79785 24.1191 7.29785 23.6191C7.79785 23.1191 8.39941 22.8691 9.10254 22.8691C9.79004 22.8691 10.3838 23.1191 10.8838 23.6191C11.3838 24.1191 11.6338 24.7129 11.6338 25.4004C11.6338 26.1035 11.3838 26.7051 10.8838 27.2051C10.3838 27.7051 9.79004 27.9551 9.10254 27.9551ZM14.9385 27.6035C14.5635 27.4004 14.251 27.1035 14.001 26.7129C13.751 26.3066 13.626 25.8691 13.626 25.4004C13.626 24.7441 13.8682 24.1738 14.3525 23.6895C14.8369 23.1895 15.415 22.9395 16.0869 22.9395C16.8369 22.9395 17.4541 23.2285 17.9385 23.8066C18.4229 24.3848 18.6182 25.0488 18.5244 25.7988C17.8838 26.0645 17.2666 26.3457 16.6729 26.6426C16.0791 26.9238 15.501 27.2441 14.9385 27.6035ZM38.7041 27.5566C38.1416 27.2129 37.5557 26.8926 36.9463 26.5957C36.3525 26.2832 35.7275 26.0098 35.0713 25.7754C34.9619 25.0254 35.1494 24.3691 35.6338 23.8066C36.1338 23.2285 36.7588 22.9395 37.5088 22.9395C38.165 22.9395 38.7354 23.1895 39.2197 23.6895C39.7041 24.1738 39.9463 24.7441 39.9463 25.4004C39.9463 25.8535 39.8291 26.2754 39.5947 26.666C39.3604 27.041 39.0635 27.3379 38.7041 27.5566ZM44.4932 27.9551C43.79 27.9551 43.1885 27.7051 42.6885 27.2051C42.2041 26.7051 41.9619 26.1035 41.9619 25.4004C41.9619 24.7129 42.2041 24.1191 42.6885 23.6191C43.1885 23.1191 43.79 22.8691 44.4932 22.8691C45.1963 22.8691 45.79 23.1191 46.2744 23.6191C46.7744 24.1191 47.0244 24.7129 47.0244 25.4004C47.0244 26.1035 46.7744 26.7051 46.2744 27.2051C45.79 27.7051 45.1963 27.9551 44.4932 27.9551ZM51.5479 27.3926C51.0322 27.3926 50.5791 27.1973 50.1885 26.8066C49.7979 26.416 49.6025 25.9473 49.6025 25.4004C49.6025 24.8691 49.7979 24.416 50.1885 24.041C50.5791 23.6504 51.0322 23.4551 51.5479 23.4551C52.0947 23.4551 52.5635 23.6504 52.9541 24.041C53.3447 24.416 53.54 24.8691 53.54 25.4004C53.54 25.9473 53.3447 26.416 52.9541 26.8066C52.5635 27.1973 52.0947 27.3926 51.5479 27.3926ZM2.02441 34.5645C1.64941 34.5645 1.32129 34.4238 1.04004 34.1426C0.758789 33.8613 0.618164 33.5254 0.618164 33.1348C0.618164 32.7598 0.758789 32.4395 1.04004 32.1738C1.32129 31.8926 1.64941 31.752 2.02441 31.752C2.39941 31.752 2.72754 31.8926 3.00879 32.1738C3.29004 32.4395 3.43066 32.7598 3.43066 33.1348C3.43066 33.5254 3.29004 33.8613 3.00879 34.1426C2.72754 34.4238 2.39941 34.5645 2.02441 34.5645ZM8.18848 34.8691C7.48535 34.5098 7.13379 33.9316 7.13379 33.1348C7.13379 32.6035 7.32129 32.1426 7.69629 31.752C8.08691 31.3613 8.55566 31.166 9.10254 31.166C9.52441 31.166 9.91504 31.3066 10.2744 31.5879C9.43066 32.6348 8.73535 33.7285 8.18848 34.8691ZM45.501 34.8223C44.9229 33.6504 44.2119 32.5566 43.3682 31.541C43.7119 31.291 44.0869 31.166 44.4932 31.166C45.04 31.166 45.501 31.3613 45.876 31.752C46.2666 32.1426 46.4619 32.6035 46.4619 33.1348C46.4619 33.8691 46.1416 34.4316 45.501 34.8223ZM51.5479 34.5645C51.1885 34.5645 50.8682 34.4238 50.5869 34.1426C50.3057 33.8613 50.165 33.5254 50.165 33.1348C50.165 32.7598 50.3057 32.4395 50.5869 32.1738C50.8682 31.8926 51.1885 31.752 51.5479 31.752C51.9385 31.752 52.2666 31.8926 52.5322 32.1738C52.8135 32.4395 52.9541 32.7598 52.9541 33.1348C52.9541 33.5254 52.8135 33.8613 52.5322 34.1426C52.2666 34.4238 51.9385 34.5645 51.5479 34.5645ZM2.02441 42.2754C1.64941 42.2754 1.32129 42.1348 1.04004 41.8535C0.758789 41.5879 0.618164 41.2598 0.618164 40.8691C0.618164 40.4941 0.758789 40.166 1.04004 39.8848C1.32129 39.6191 1.64941 39.4863 2.02441 39.4863C2.39941 39.4863 2.72754 39.6191 3.00879 39.8848C3.29004 40.166 3.43066 40.4941 3.43066 40.8691C3.43066 41.2598 3.29004 41.5879 3.00879 41.8535C2.72754 42.1348 2.39941 42.2754 2.02441 42.2754ZM51.5479 42.2754C51.1885 42.2754 50.8682 42.1348 50.5869 41.8535C50.3057 41.5879 50.165 41.2598 50.165 40.8691C50.165 40.4941 50.3057 40.166 50.5869 39.8848C50.8682 39.6191 51.1885 39.4863 51.5479 39.4863C51.9385 39.4863 52.2666 39.6191 52.5322 39.8848C52.8135 40.166 52.9541 40.4941 52.9541 40.8691C52.9541 41.2598 52.8135 41.5879 52.5322 41.8535C52.2666 42.1348 51.9385 42.2754 51.5479 42.2754Z" fill="#AE4C1A"/>
</svg>
